<svg xmlns="http://www.w3.org/2000/svg" width="177.407" height="129.433" viewBox="0 0 177.407 129.433">
  <g id="Grupo_44" data-name="Grupo 44" opacity="0.3">
    <path id="Caminho_202" data-name="Caminho 202" d="M86.158,73.445a12.566,12.566,0,0,0-6.442-1.312,11.354,11.354,0,0,0-3.511.924l11.232,4.535a109.077,109.077,0,0,0-9.07,12.515,45.517,45.517,0,0,0-4.69,9.768,19.289,19.289,0,0,0-1.186,8.589c5.359-1.2,11.029-7.1,14.692-14.156A27.177,27.177,0,0,0,90.8,79.458,8.2,8.2,0,0,0,86.158,73.445ZM10.372,16.634V34.8L72.7,57.016h.037A122.957,122.957,0,0,0,87,56.2c12.149-1.774,20.017-5.174,20.017-8.752V17.514L68.761,30.479Z" transform="translate(27.963 20.969)" fill="#fff"/>
    <path id="Caminho_203" data-name="Caminho 203" d="M82.494,6.46,0,29.061l38.335,9.063L96.454,51.895l38.531-13.036,42.423-14.388Z" transform="translate(0 -6.46)" fill="#fff"/>
    <path id="Caminho_204" data-name="Caminho 204" d="M94.224,75.538c.078-.37.155-.809.229-1.271a9.119,9.119,0,0,1,.425-1.541L95,72.378A56.766,56.766,0,0,1,100.63,60.5a62.387,62.387,0,0,1,4.627-6.749,1.549,1.549,0,0,0,.155-.233l-7.6-3.045A28.09,28.09,0,0,0,93.3,56.759a51.035,51.035,0,0,0-4.117,8.955L1.2,26.5l-.54,2.354C-.075,32.48.125,36.335,2.479,37.3L95.27,81.478C94,80.513,93.689,78.392,94.224,75.538Z" transform="translate(0.762 47.568)" fill="#fff"/>
    <path id="Caminho_205" data-name="Caminho 205" d="M.056,24.588l.007-.015-.022-.011Z" transform="translate(0.111 42.343)" fill="#fff"/>
    <path id="Caminho_206" data-name="Caminho 206" d="M88.791,88.011C94.032,77.917,103.232,72.118,110.313,74l-.277-.1-96.927-34.6C9.505,37.76,4.342,41.84,1.5,48.534A22.889,22.889,0,0,0,.047,53.265L87.021,92.021a34.549,34.549,0,0,1,1.77-4.01Zm78.348-60.322V13.921l-5.788,1.929V27.677a6.952,6.952,0,0,0-4.125,6.364v4.9a7,7,0,0,0,14,0V34.053A6.919,6.919,0,0,0,167.139,27.689Z" transform="translate(0.127 13.655)" fill="#fff"/>
  </g>
</svg>
